PathFileType	4	(X/Y/Z)	Patient4_TMGait_0pt2_03_left_19.trc.trc
DataRate	CameraRate	NumFrames	NumMarkers	Units	OrigDataRate	OrigDataStartFrame	OrigNumFrames
45.602605863192	45.602605863192	5	33	mm	45.602605863192	36	       141
Frame#	Time	Sacral			L.Shoulder			Chest			R.Shoulder			Neck			R.ASIS			L.ASIS			R.Thigh.Superior			R.Thigh.Lateral			R.Thigh.Inferior			R.Patella			L.Thigh.Superior			L.Thigh.Lateral			L.Thigh.Inferior			L.Patella			L.Shank.Superior			L.Shank.Lateral			L.Shank.Inferior			R.Shank.Superior			R.Shank.Lateral			R.Shank.Inferior			R.Heel			R.Midfoot.Superior			R.Midfoot.Lateral			R.Toe			L.Heel			L.Midfoot.Lateral			L.Midfoot.Superior			L.Toe			L.Elbow			L.Wrist			R.Elbow			R.Wrist			
		X1	Y1	Z1	X2	Y2	Z2	X3	Y3	Z3	X4	Y4	Z4	X5	Y5	Z5	X6	Y6	Z6	X7	Y7	Z7	X8	Y8	Z8	X9	Y9	Z9	X10	Y10	Z10	X11	Y11	Z11	X12	Y12	Z12	X13	Y13	Z13	X14	Y14	Z14	X15	Y15	Z15	X16	Y16	Z16	X17	Y17	Z17	X18	Y18	Z18	X19	Y19	Z19	X20	Y20	Z20	X21	Y21	Z21	X22	Y22	Z22	X23	Y23	Z23	X24	Y24	Z24	X25	Y25	Z25	X26	Y26	Z26	X27	Y27	Z27	X28	Y28	Z28	X29	Y29	Z29	X30	Y30	Z30	X31	Y31	Z31	X32	Y32	Z32	X33	Y33	Z33	

36	40.427500000000	789.464876107279	1007.807853122682	550.109503295003	907.907702760147	1422.399166000803	313.010643275634	1056.466214499352	1354.866995649240	434.099607628578	1035.918069989930	1438.960522412750	619.762024455723	934.788091000512	1488.307718682220	466.569852700865	1036.256008947842	933.471109275797	606.883824317031	956.963662945148	956.516284391959	344.367258400593	1029.023291096692	719.834141034987	580.333039960140	939.618093542849	623.400925256094	659.189655113451	986.394239428020	558.727498452458	570.212547055292	968.246138634951	468.766930056951	582.441142059753	1033.378849088327	762.572967554054	366.115371338633	952.401010004760	625.824566377169	304.783951906245	1064.089091611019	571.448995315226	353.792232543590	1075.127300929128	500.674835938664	355.367098664964	1052.131082256698	426.704390661610	344.665509308826	965.553756694794	310.580214279676	290.628624838827	1030.991614800459	197.624982916235	347.937316512706	918.454898774047	390.275282308512	597.202038747078	830.861764585053	306.677195956654	669.439483207931	843.804268011704	203.784913328909	607.105662448361	677.842366462621	57.916004779383	589.703464718485	851.572983673166	96.710605047483	618.532744626330	762.068780681497	44.587363461882	661.934404676316	969.181801227197	38.392877898794	647.661568676051	911.827501251302	38.308685658809	381.391745613200	986.623624007670	35.594868937473	301.448587628932	1068.773772811890	98.190388227283	328.907278314392	1197.191420061227	49.576602302465	301.620524455007	749.793699550595	1101.441946083254	253.064739909149	709.770253713519	846.134378727350	300.816893966559	1253.077177529315	1178.494571573164	703.203055602045	1465.639374588524	1271.328257306928	596.801833446004	
37	40.449428571429	789.202435818290	1009.087689650917	542.884890931208	909.978594430713	1423.293503551084	306.756769606217	1057.334622517048	1356.047921017563	429.440937555900	1034.764615694497	1440.482936379369	614.743727685144	935.127303829216	1489.471449191811	460.718978851564	1035.292506463532	934.515107269963	602.243291295219	958.686225930635	957.401078701524	338.975006841791	1027.870919131427	720.768194135487	576.784850245943	938.063386272156	624.912962699630	655.840282355262	985.545666635059	559.521382062093	567.678059446636	967.421431817136	469.296525373704	580.610371897194	1033.473025940880	762.461831403138	361.367482177002	951.330001186599	626.027330219149	300.670959975792	1062.216152578679	570.957609578891	350.481885553137	1072.744015590501	500.302730484789	352.768660495256	1049.513844845850	426.332719800765	342.403435994267	962.682006133507	310.247047549193	288.758096947339	1027.272108009921	197.432290270443	347.267878537565	916.846129346010	391.367581772588	595.594596421561	828.267164242077	308.942579606984	667.877635411362	841.073570682931	205.375776444600	606.614982469820	674.106856290805	60.958788511384	589.672832711060	848.394564722601	97.559642155780	618.880715125773	758.190170311236	46.323593838529	661.889646218198	964.987270579067	38.097238903819	647.680684025006	907.572785872820	38.248166626607	381.354952405445	982.333099466066	35.559915818633	301.361439644530	1064.423126057465	98.179724503425	328.804121631698	1192.899357998937	49.690439795742	301.534063845769	754.711492126385	1101.151438873625	243.204981428817	717.221913774971	845.041957911677	288.285990315952	1249.394639534590	1177.515650722846	699.798018747318	1465.054292362385	1266.008252624741	595.024691914072	
38	40.471357142857	788.890852691618	1010.426795514228	535.526470887932	912.160514311383	1424.360373545806	300.628760728223	1058.152317999102	1357.402913596400	425.051907635557	1033.375096018759	1442.141904194326	609.966288614996	935.440066110364	1490.777967415598	455.010378215356	1034.274362738762	935.696936550416	597.604013756054	960.446156019896	958.404723590176	333.572227453287	1026.933326453208	721.904023046042	573.187884502557	936.893543780263	626.520508890759	652.452898444586	985.260090961172	560.445811174463	565.144016140517	967.280333451123	469.824143790594	578.871467329554	1033.324591810614	762.226896367557	356.497226811351	949.792605391869	626.214585385452	296.517990157481	1059.808979513050	570.374638376701	347.143475341030	1069.726779553774	499.925251353920	350.146399096385	1046.367030722972	426.013243811351	340.104449573986	959.394994767890	309.858529518343	286.936567149593	1023.319559989297	197.273078435336	346.561027284855	915.771355244691	392.526054155053	594.037352254010	826.044449290237	311.394173913734	666.280084642736	838.654303728977	207.114089037429	606.165105577948	670.499435720557	64.353400507242	589.637401255690	845.439307433111	98.505219913212	619.316681041453	754.395008800073	48.240582772840	661.838152409822	960.815598773582	37.826252471071	647.686705247184	903.266888813402	38.202142791767	381.333443540678	977.999734776264	35.515881582249	301.300816602967	1060.047834688414	98.136858025827	328.710777636615	1188.574187748490	49.726166526624	301.490211659209	760.399619044945	1100.756953026010	233.253436589091	725.920364226037	843.842714334114	275.568405026853	1244.563428885452	1175.862668285882	696.902647881052	1463.865332696148	1258.904253840985	594.181588785737	
39	40.493285714286	788.528711558082	1011.781384167960	528.056369445251	914.408141424294	1425.572071062066	294.664926697165	1058.884983323400	1358.894110893569	420.940412433657	1031.751466165415	1443.874204782246	605.448224187365	935.712563764685	1492.188588937080	449.470549570878	1033.209430137872	936.979721516145	592.949316457720	962.225949991114	959.510124814347	328.159453533475	1026.266327451432	723.202904658329	569.552566336753	936.156379244016	628.173631595110	649.029531167304	985.602611085464	561.461240518468	562.619946293728	967.882466473046	470.310170417469	577.236092989550	1033.007733552542	761.905029211026	351.582098148754	947.977655928284	626.390890827211	292.338177409755	1057.049185605739	569.733258766898	343.837084903753	1066.274527262677	499.538867871043	347.547219889411	1042.862618436156	425.736141161040	337.813065936880	955.844941994226	309.437442025383	285.156469577446	1019.203147907099	197.132072020355	345.837716539639	915.284860316594	393.703497140705	592.539043107981	824.243610442860	314.001907886127	664.656700761003	836.577055146241	208.969245905385	605.764983815810	667.037386749502	68.075829236451	589.611512332897	842.702990054652	99.504388966704	619.824387980999	750.689683348374	50.313801668118	661.788237231860	956.667915432665	37.591500684413	647.678429906784	898.912370849978	38.170757114247	381.323187727301	973.624550323050	35.470846883236	301.262847454725	1055.652447536213	98.062267588341	328.631997004956	1184.220237568840	49.680523097708	301.475332322459	766.962237742508	1100.188824405603	223.265358705697	736.015218496749	842.473659396794	262.705873281087	1238.479530605986	1173.452756461660	694.537708205053	1461.912420990165	1249.635798542193	594.301947021703	
40	40.515214285714	788.109528498723	1013.089902073111	520.493763868751	916.683118175309	1426.886414556045	288.898913424125	1059.504531207532	1360.460755777596	417.108052261719	1029.900253405023	1445.588266645006	601.205092955605	935.935349864485	1493.645972502440	444.126629401926	1032.095885011937	938.309790976036	588.259953905279	964.004678316179	960.680988822584	322.734227890841	1025.923008468830	724.610357221910	565.895668381567	935.893327503305	629.806582049952	645.570301793561	986.635382545870	562.515296136422	560.115426662398	969.280626234010	470.709118125783	575.707169105866	1032.609929999606	761.529767228882	346.696741478469	946.099291509160	626.545171961502	288.144657408181	1054.154367858772	569.061809332638	340.616210115434	1062.637029078244	499.131729191866	345.011713450199	1039.211168988036	425.478121793943	335.572900149226	952.213637649415	309.000276886478	283.411545894332	1015.010488361070	196.989579470613	345.122223000043	915.442881448262	394.841469443080	591.105202351719	822.923299738166	316.727046879315	663.021595224630	834.875106337177	210.905790331466	605.426035913625	663.742510870794	72.106626160289	589.618192553774	840.179565296210	100.511145421527	620.390958391645	747.083281122953	52.521064994881	661.755597759186	952.545935281446	37.400833995493	647.655808313589	894.518170385174	38.153165398906	381.320635475541	969.215800202464	35.432699806353	301.244316547119	1051.246375694546	97.959597589691	328.573942522632	1179.847704375005	49.554959945491	301.478821600783	774.500868115660	1099.384430776732	213.303568647230	747.627919662268	840.885061960119	249.757648395763	1231.076699156068	1170.219349089723	692.693685081842	1459.010059192035	1237.827218503918	595.402374969395	
